<?xml version="1.0" encoding="UTF-8"?>
<svg version="1.1" xmlns="http://www.w3.org/2000/svg" width="128" height="128">
<path d="M0 0 C10.89 0.99 10.89 0.99 22 2 C20.02 4.64 18.04 7.28 16 10 C14.11770332 12.68395024 12.26542525 15.38577843 10.41796875 18.09375 C9.95003906 18.7228125 9.48210937 19.351875 9 20 C8.67 20 8.34 20 8 20 C7.505 16.04 7.505 16.04 7 12 C-5.89148506 20.84331779 -18.71788594 31.4723388 -22.6875 47.375 C-23.29814993 52.01895501 -22.68660787 55.04910607 -20 59 C-14.10727172 63.51592261 -7.24941534 64.36487714 -0.04296875 63.74609375 C7.84602257 62.64461194 13.654074 60.5094445 20 55.75 C22.13754672 52.81087326 22.84899094 50.77735457 22.62109375 47.1171875 C21.36922386 42.84980712 18.12052424 40.02381378 15 37 C14.47921875 36.46761719 13.9584375 35.93523437 13.421875 35.38671875 C12.29844932 34.24069543 11.15210258 33.11719038 10 32 C10.33 31.34 10.66 30.68 11 30 C17.3757656 31.79318408 22.3483008 36.5740668 26 41.9375 C27.70760399 47.16703721 27.88286883 51.08071994 25.5625 56.125 C18.67258776 63.85514544 10.19392574 67.32906392 -0.015625 68.28125 C-8.03805245 68.52809392 -16.00388856 67.6464133 -22.5 62.5625 C-25.97371461 59.00194253 -27.29391693 56.35350041 -27.375 51.375 C-27.05542466 37.77307449 -17.34662464 26.05797888 -8 17 C-3.81871925 13.46808482 0.57345024 10.2155771 5 7 C3.7625 5.824375 3.7625 5.824375 2.5 4.625 C0 2 0 2 0 0 Z " fill="#000000" transform="translate(64,30)"/>
</svg>
